#!OML:ASF F:\VICON\USERDATA\INSTALL\rory3\rory3.ASF
:FULLY-SPECIFIED
:DEGREES
17
root 0.49553686109292444 17.5198010397941 -14.27828979398951 6.57769545371954 -0.554814563148022 -1.9922768453784174
lfemur -13.829905416537237 8.026004317182423 -17.34410524439561
ltibia 19.75820522917949
lfoot -10.525699260147217 4.976321983981999
ltoes -12.818096684338867
rfemur -13.796905361697071 -2.4287249138173364 19.115410452358464
rtibia 21.123905443644055
rfoot -13.043600388536765 -2.008501980716299
rtoes 4.902733439982169
lowerback -1.8945658885025347 -0.6980746679583012 0.5835788437998581
upperback 5.035320041603665 -1.0554610009320982 1.6371794024585289
thorax 6.309650872091436 -0.5399973415948328 1.2988476147988126
lowerneck -11.000704882765096 0.5113350908967331 -2.2939765644261385
upperneck 36.47838581747697 1.0282697561699705 0.8550717014715248
head 14.323084703175923 0.23086070841661802 0.9100486007062777
lclavicle 1.1182325615221014e-15 -1.3239623231992689e-15
lhumerus -16.033708708318876 0.8569636232783937 88.19719615123725
lradius 17.968706372034028
lwrist -1.3592030897384992
lhand -23.638300909081416 -3.6790657219878713
lfingers 7.125019999999998
lthumb 2.826629090500667 26.28199422197857
rclavicle 1.1182325615221014e-15 -1.3239623231992689e-15
rhumerus -18.278310386312928 -17.18179452354617 -82.62449133116439
rradius 25.87980292863918
rwrist 32.11080716779817
rhand -18.2520938880801 -26.93809688092546
rfingers 7.125019999999998
rthumb 8.027006112294103 -56.76569664030669
18
root 0.4961168239999581 17.51680106080278 -14.288589785597868 6.527485534388162 -0.5145219040243402 -2.0354561529890476
lfemur -13.894705372506227 7.9566146839076595 -17.295105533873443
ltibia 19.911205140212026
lfoot -10.559299226438501 4.96750200034796
ltoes -12.736796791847492
rfemur -13.79640536204163 -2.442444858911247 19.161410150480098
rtibia 21.169305418279507
rfoot -13.049400382969592 -2.0241619521259206
rtoes 4.920533418418099
lowerback -1.7933560361093273 -0.6978366709930517 0.5450641950626851
upperback 5.045510000623382 -1.0533110221597404 1.6672088273109875
thorax 6.263440972646825 -0.5417533092097575 1.3529168602170274
lowerneck -11.039704766520655 0.5280597948962862 -2.31846595331533
upperneck 36.256586064625274 1.0727093186130685 0.8222540046167472
head 14.228085023368612 0.24520728097298508 0.9056047719505942
lclavicle 1.1182325551992297e-15 -1.3239623181980093e-15
lhumerus -15.89870884693326 0.30148115742339243 88.32149588566917
lradius 18.22280598327788
lwrist -0.9070184809977144
lhand -23.707200519039432 -3.589926073580752
lfingers 7.125019999999998
lthumb 2.7601394802816914 26.371993864729102
rclavicle 1.1182325551992297e-15 -1.3239623181980093e-15
rhumerus -18.18781054258394 -16.872994898133975 -82.7194910642059
rradius 25.927002862807818
rwrist 31.991307440278597
rhand -18.31489349921638 -26.877797412529016
rfingers 7.125019999999998
rthumb 7.966396501306303 -56.7075971300082
19
root 0.49407895433696764 17.513801081811458 -14.302389774354637 6.4868355996974385 -0.42350167405643896 -2.048105950146863
lfemur -14.001005300276343 7.908114940229522 -17.27470565439074
ltibia 20.079105042580377
lfoot -10.601799183800988 4.917372093366749
ltoes -12.745896779813929
rfemur -13.82270534391941 -2.4750147285693127 19.184609998228396
rtibia 21.240305378612472
rfoot -13.072900360412943 -2.070701867158096
rtoes 4.908783432652806
lowerback -1.6817961988107895 -0.6949907072825372 0.5129514879382755
upperback 5.043470008827488 -1.0469910845591341 1.6864484588181905
thorax 6.1978611153523255 -0.5407303280764604 1.3925463071547726
lowerneck -11.187804325089854 0.5564302927839635 -2.2642673057941303
upperneck 36.150186183185184 1.132078734055156 0.75078366480604
head 14.2122850766217 0.2703175328349052 0.87588891706026
lclavicle 1.1182325575176184e-15 -1.3239623204207905e-15
lhumerus -15.80940893862413 -0.31366025106431605 88.3940957305586
lradius 18.497105563617062
lwrist -0.41184890945023866
lhand -23.65910079133289 -3.511846381549919
lfingers 7.125019999999998
lthumb 2.8065692080974083 26.44939355749456
rclavicle 1.1182325575176184e-15 -1.3239623204207905e-15
rhumerus -18.169510574183505 -16.58109525222134 -82.83679073458241
rradius 25.94240284132894
rwrist 31.88670767878449
rhand -18.28509368374089 -26.800598093122623
rfingers 7.125019999999998
rthumb 7.99522631626717 -56.62939778912452
20
root 0.4904241880866094 17.51100110141956 -14.3177897618079 6.475245618318215 -0.3717261120782349 -2.031616214563276
lfemur -14.124905216087427 7.86487516875235 -17.283505602402887
ltibia 20.20900496704521
lfoot -10.604199181393223 4.896022132982767
ltoes -12.655296899620584
rfemur -13.901705289483857 -2.4266249222213276 19.17511006057284
rtibia 21.32020533397307
rfoot -13.084200349566553 -2.14513173127165
rtoes 4.967403361636781
lowerback -1.5897863330001094 -0.6792049085705988 0.473926843852384
upperback 5.029780063883431 -1.0223913274428598 1.69079837550511
thorax 6.130571261778888 -0.5305085165959547 1.4216059016036962
lowerneck -11.2846040365652 0.561864196612575 -2.2984264533831373
upperneck 35.918886440919216 1.1517385404825058 0.7534456402167105
head 14.126885364458065 0.2778143094749749 0.8844535870180523
lclavicle 1.1182325544404856e-15 -1.3239623230140323e-15
lhumerus -15.730209019944562 -0.6670749112251904 88.35409581601898
lradius 18.622305372069377
lwrist -0.1856071052092121
lhand -23.53300150518331 -3.3758969177744165
lfingers 7.125019999999998
lthumb 2.928338494251184 26.583793024002023
rclavicle 1.1182325544404856e-15 -1.3239623230140323e-15
rhumerus -18.19131053654033 -16.357095523943073 -82.92939047436815
rradius 25.927102862668345
rwrist 31.836907792336994
rhand -18.1680944082163 -26.817797941487775
rfingers 7.125019999999998
rthumb 8.108105591771265 -56.642297680395615
